<svg width="70" height="70" viewBox="0 0 70 70" fill="none" xmlns="http://www.w3.org/2000/svg">
<path d="M34.9605 0C15.6838 0 0 15.6838 0 34.9605C0 54.2372 15.6838 69.921 34.9605 69.921C54.2372 69.921 69.9249 54.2372 69.9249 34.9605C69.9249 15.6838 54.2411 0 34.9605 0ZM34.9605 66.0069C17.8427 66.0069 3.91802 52.0823 3.91802 34.9605C3.91802 17.8388 17.8427 3.91802 34.9605 3.91802C52.0783 3.91802 66.0069 17.8427 66.0069 34.9605C66.0069 52.0783 52.0783 66.0069 34.9605 66.0069Z" fill="#FF5733"/>
<path d="M48.2426 10.2417H39.3879V19.0964H48.2426V10.2417Z" fill="#FF5733"/>
<path d="M21.6823 19.0964V55.5301H48.2426V46.6754H30.5371V41.7387H48.2426V32.8879H30.5371V27.9512H39.3879L39.3879 19.0964L21.6823 19.0964Z" fill="#FF5733"/>
</svg>
