<svg xmlns="http://www.w3.org/2000/svg" width="46" height="52" fill="none"><path fill="#FF5733" d="M4.997 31.312c-.835-.276-1.659-.437-2.369-.81-1.247-.654-1.686-1.918-1.335-3.407.258-1.095 1.472-2.077 2.7-2.122.99-.038 1.987.033 2.973-.042.304-.024.728-.312.843-.585.498-1.184.923-2.4 1.337-3.618.916-2.684 3.549-4.614 6.4-4.624 4.53-.016 9.062.085 13.586-.037 4.009-.11 6.827 1.985 7.875 5.692.152.54.357 1.063.541 1.593.561 1.607.561 1.607 2.212 1.607.629 0 1.257-.016 1.884.006 1.502.051 2.666 1.087 2.86 2.523.218 1.61-.589 2.913-2.108 3.364-.5.146-1.016.236-1.648.38.17.264.29.477.436.667 1.275 1.654 1.924 3.503 1.872 5.613-.05 2.016-.008 4.033-.023 6.05-.014 1.896-1.054 2.946-2.942 2.96-2.214.015-4.43.021-6.645.001-1.835-.016-2.866-1.069-2.908-2.91-.031-1.471-.031-1.473-1.463-1.473-4.231 0-8.462.024-12.693-.018-.93-.01-1.204.315-1.182 1.208.053 2.172-1.006 3.195-3.202 3.2-2.049.003-4.098.011-6.148.003-2.129-.008-3.119-.968-3.117-3.088.002-2.476.008-4.955.113-7.428.066-1.557.724-2.93 1.76-4.11.168-.187.278-.42.39-.595ZM22.825 27.8c3.963 0 7.924.002 11.887-.002 1.158 0 1.255-.117.91-1.16-.516-1.565-1.01-3.14-1.599-4.677-.678-1.772-1.89-2.936-3.911-2.938-4.854-.006-9.707-.008-14.561.02-1.829.01-3.05 1-3.697 2.646-.649 1.654-1.192 3.35-1.758 5.036-.345 1.027-.291 1.079.841 1.079 3.961 0 7.924-.002 11.888-.004Zm11.427 8.301v.004c.79 0 1.582-.026 2.372.006 1.045.041.692-.736.74-1.248.05-.525.105-1.075-.742-1.055-1.516.036-3.031-.002-4.546.022-.229.004-.558.105-.667.274-.571.894.03 1.991 1.063 1.997.593.002 1.186 0 1.78 0ZM11.427 36.1v.006h1.484c1.6 0 1.688-.075 1.46-1.666-.034-.232-.409-.585-.635-.593-1.55-.052-3.098-.024-4.65-.028-1-.002-.69.756-.74 1.287-.055.578.005 1.057.806 1.004.756-.05 1.518-.01 2.275-.01ZM22.846 51.813c-7.233 0-14.465-.017-21.7.022C.19 51.841-.007 51.51 0 50.637c.008-.85.155-1.21 1.137-1.208 14.466.032 28.933.018 43.4.016 1.094 0 1.733 1.083 1.148 2.053-.13.214-.617.296-.94.3-2.807.023-5.616.017-8.423.02H22.846v-.005ZM26.855 0h-2.6v2.6h2.6V0ZM24.255 5.203V2.6h-5.203v10.703h7.802v-2.6h-5.202v-1.45h5.202v-2.6h-5.202v-1.45h2.602Z"/></svg>