<svg xmlns="http://www.w3.org/2000/svg" width="39" height="49" fill="none"><path fill="#FF5733" d="M27.835 48.45c-2.258 0-4.334.02-6.411-.03-.216-.006-.46-.403-.62-.665-.092-.149-.025-.389-.05-.585-.12-.966-.826-1.644-1.688-1.63-.782.011-1.581.817-1.655 1.7-.03.354-.006.713-.006 1.205-2.255 0-4.393.01-6.53-.023-.146-.002-.352-.324-.416-.532-.087-.276-.024-.595-.091-.88-.218-.915-.968-1.542-1.728-1.486-.783.057-1.648.864-1.593 1.751.072 1.127-.474 1.224-1.362 1.192-1.452-.051-2.908-.012-4.362-.012-1.313 0-1.315-.002-1.315-1.277-.002-9.515-.004-19.03-.004-28.543C.008 12.788.028 6.938 0 1.091-.004.293.185-.028 1.037 0c1.65.058 3.305.033 4.955.003.663-.012 1.026.103 1.036.904.014 1.19.734 1.974 1.644 1.992 1.008.022 1.708-.704 1.755-1.988.026-.696.252-.916.933-.904 1.817.036 3.633.014 5.452.02.13 0 .258.033.502.067.03.373.058.754.091 1.13.082.91.83 1.647 1.672 1.655.845.008 1.524-.603 1.673-1.508C20.972.02 20.972.02 22.378.018c1.517-.002 3.037.002 4.554-.014.576-.006.909.109.913.821.004 1.355.589 2.033 1.616 2.063 1.006.03 1.657-.762 1.728-2.093.01-.196.034-.39.067-.777h2.135c1.255 0 2.513.05 3.766-.014.851-.044 1.085.303 1.071 1.089-.055 3.07-.103 6.143-.099 9.215.02 12.32.054 24.64.11 36.96.003.876-.207 1.249-1.161 1.205a49.96 49.96 0 0 0-4.657.002c-.935.044-1.294-.238-1.276-1.204.018-.982-.803-1.736-1.68-1.73-.878.006-1.58.77-1.628 1.784-.014.323-.002.648-.002 1.124ZM2.385 24.313H2.38c0 3.999.002 8 0 11.998-.002 2.906-.02 5.81.004 8.716.002.345.127.864.367 1.001.768.439 1.954.01 2.444-.763 1.87-2.954 5.534-2.874 7.186.214.474.885 1.155.56 1.787.627.54.057.962-.028 1.282-.641.748-1.436 1.936-2.283 3.641-2.297 1.665-.014 2.853.766 3.604 2.174.336.627.728.835 1.395.791.71-.047 1.357.08 1.815-.79.734-1.393 1.952-2.187 3.618-2.175 1.76.014 2.906.954 3.709 2.392.54.966 1.396.496 2.114.484.157-.002.429-.712.433-1.097.067-7.236.113-14.471.139-21.71.02-6.011.008-12.023-.002-18.033-.002-.69-.042-1.39-.155-2.07-.04-.24-.337-.602-.546-.62-.91-.083-1.731-.111-2.382.89-1.735 2.672-5.82 2.305-7.027-.392-.447-.998-1.482-.448-2.234-.6-.258-.05-.734.44-.942.784-.883 1.45-2.21 2.047-3.824 2.045-1.484-.002-2.589-.783-3.273-2.05-.306-.564-.655-.715-1.234-.752-1.03-.068-1.898.043-2.261 1.208-.062.2-.288.357-.456.511-2.035 1.843-4.923 1.472-6.361-.934-.635-1.061-1.51-.813-2.325-.702-.899.123-.488.966-.49 1.474-.032 6.765-.022 13.541-.022 20.317Z"/><path fill="#FF5733" d="M19.085 29.725c-3.435 0-6.873-.036-10.306.022-.982.015-1.226-.308-1.228-1.242-.002-.897.24-1.206 1.165-1.202 6.474.026 12.95.002 19.424.002.395 0 .79.061 1.184.093 1.178.091 1.65.694 1.248 1.801-.1.272-.706.504-1.081.508-3.47.038-6.936.022-10.406.022v-.004ZM19.072 33.977c-3.434 0-6.865-.033-10.297.022-.97.016-1.234-.3-1.232-1.235.004-.899.26-1.204 1.18-1.2 6.931.03 13.864.03 20.794-.008.978-.006 1.134.396 1.14 1.243.006.895-.258 1.21-1.188 1.198-3.467-.05-6.932-.02-10.397-.02ZM13.793 38.22c-1.749 0-3.498-.033-5.246.014-.821.022-1.027-.33-.98-1.065.046-.69-.12-1.377 1.008-1.359 3.562.056 7.129.044 10.691.01 1.014-.01.87.645.899 1.266.03.664-.048 1.164-.927 1.144-1.815-.037-3.63-.01-5.444-.01ZM23.963 7.52h-3.23v3.229h3.23v-3.23ZM20.734 13.976v-3.227h-6.459V24.034H23.963v-3.229h-6.458v-1.801h6.458v-3.227h-6.458v-1.801h3.229Z"/></svg>