<svg xmlns="http://www.w3.org/2000/svg" width="49" height="49" fill="none"><path fill="#FF5733" d="M48.396 39.59c-.153-5.377-.105-10.763-.107-16.144-.002-4.923.075-9.846.071-14.771C48.356 3.61 44.718.009 39.662.007 29.285.005 18.907-.021 8.53.043a8.9 8.9 0 0 0-3.624.823C1.52 2.46-.002 5.285 0 8.99c.006 10.213-.008 20.426.016 30.64.002.948.107 1.931.379 2.834 1.093 3.638 4.153 5.929 7.968 5.955 5.286.037 10.574.01 15.86.01v.007c5.121 0 10.243-.089 15.36.026 4.91.11 8.958-3.778 8.813-8.872ZM31.728 16.414H26.71v5.019h-5.018v2.799h10.036v5.018H21.692v2.799h10.036v5.018H16.673V16.41H26.71v-5.018h5.018v5.023Z"/></svg>