<svg width="1440" height="160" viewBox="0 0 1440 160" fill="none" xmlns="http://www.w3.org/2000/svg">
<g opacity="0.7">
<path d="M94.7554 160L34.3917 160L34.229 159.72L-61 0L-0.649894 -1.64874e-06L-0.487224 0.279585L94.7554 160ZM35.3406 159.153L92.8033 159.153L-1.58524 0.847227L-59.048 0.847229L35.3406 159.153Z" fill="#5A1846" fill-opacity="0.3"/>
<path d="M211.89 160L151.526 160L56.1348 0L116.498 -1.64911e-06L211.89 160ZM152.475 159.153L209.938 159.153L115.55 0.847227L58.0868 0.847229L152.475 159.153Z" fill="#5A1846" fill-opacity="0.3"/>
<path d="M329.025 160L268.675 160L173.283 3.05176e-05L233.647 2.88685e-05L329.025 160ZM269.61 159.153L327.073 159.153L232.685 0.847258L175.222 0.847259L269.61 159.153Z" fill="#5A1846" fill-opacity="0.3"/>
<path d="M446.161 160L385.797 160L290.406 3.05176e-05L350.769 2.88685e-05L446.161 160ZM386.746 159.153L444.209 159.153L349.821 0.847258L292.358 0.847259L386.746 159.153Z" fill="#5A1846" fill-opacity="0.3"/>
<path d="M563.309 160L502.945 160L407.554 3.05176e-05L467.917 2.88685e-05L563.309 160ZM503.894 159.153L561.357 159.153L466.968 0.847258L409.506 0.847259L503.894 159.153Z" fill="#5A1846" fill-opacity="0.3"/>
<path d="M680.444 160L620.081 160L524.689 3.05176e-05L585.053 2.88685e-05L680.444 160ZM621.03 159.153L678.492 159.153L584.104 0.847258L526.641 0.847259L621.03 159.153Z" fill="#5A1846" fill-opacity="0.3"/>
<path d="M797.579 160L737.215 160L641.824 3.05176e-05L702.187 2.88685e-05L797.579 160ZM738.164 159.153L795.627 159.153L701.239 0.847258L643.776 0.847259L738.164 159.153Z" fill="#5A1846" fill-opacity="0.3"/>
</g>
<g opacity="0.7">
<path d="M914.89 160L854.526 160L759.135 0L819.498 -1.64911e-06L914.89 160ZM855.475 159.153L912.938 159.153L818.55 0.847227L761.087 0.847229L855.475 159.153Z" fill="#5A1846" fill-opacity="0.3"/>
<path d="M1032.03 160L971.675 160L876.283 0L936.647 -1.64911e-06L1032.03 160ZM972.61 159.153L1030.07 159.153L935.685 0.847227L878.222 0.847229L972.61 159.153Z" fill="#5A1846" fill-opacity="0.3"/>
<path d="M1149.16 160L1088.8 160L993.406 0L1053.77 -1.64911e-06L1149.16 160ZM1089.75 159.153L1147.21 159.153L1052.82 0.847227L995.358 0.847229L1089.75 159.153Z" fill="#5A1846" fill-opacity="0.3"/>
<path d="M1266.31 160L1205.95 160L1110.55 0L1170.92 -1.64911e-06L1266.31 160ZM1206.89 159.153L1264.36 159.153L1169.97 0.847227L1112.51 0.847229L1206.89 159.153Z" fill="#5A1846" fill-opacity="0.3"/>
<path d="M1383.44 160L1323.08 160L1227.69 0L1288.05 -1.64911e-06L1383.44 160ZM1324.03 159.153L1381.49 159.153L1287.1 0.847227L1229.64 0.847229L1324.03 159.153Z" fill="#5A1846" fill-opacity="0.3"/>
<path d="M1500.58 160L1440.22 160L1344.82 0L1405.19 -1.64911e-06L1500.58 160ZM1441.16 159.153L1498.63 159.153L1404.24 0.847227L1346.78 0.847229L1441.16 159.153Z" fill="#5A1846" fill-opacity="0.3"/>
</g>
</svg>
