<svg width="311" height="113" viewBox="0 0 311 113" fill="none" xmlns="http://www.w3.org/2000/svg">
<path d="M139.464 76.4141C135.772 76.4141 132.966 75.2088 131.045 72.7981C129.162 70.3498 128.22 66.3759 128.22 60.8766C128.22 55.5279 129.143 51.6106 130.989 49.1246C132.872 46.6009 135.678 45.3391 139.407 45.3391C142.646 45.3391 145.076 46.4314 146.696 48.6161C148.353 50.7631 149.182 54.3226 149.182 59.2946V62.2326H133.079C133.117 65.6979 133.663 68.2404 134.718 69.8601C135.772 71.4798 137.392 72.2896 139.577 72.2896C141.046 72.2896 142.251 71.7058 143.193 70.5381C144.134 69.3328 144.605 67.6943 144.605 65.6226H149.182C149.182 68.9373 148.278 71.5739 146.47 73.5326C144.699 75.4536 142.364 76.4141 139.464 76.4141ZM133.136 58.1081H144.323C144.323 55.2831 143.908 53.1361 143.08 51.6671C142.251 50.1981 141.027 49.4636 139.407 49.4636C137.335 49.4636 135.81 50.1981 134.831 51.6671C133.889 53.0984 133.324 55.2454 133.136 58.1081Z" fill="#FCFCFC"/>
<path d="M155.569 75.7361V36.9771H169.412C171.973 36.9771 174.101 37.4479 175.796 38.3896C177.529 39.3313 178.828 40.6496 179.695 42.3446C180.561 44.0396 180.994 46.0171 180.994 48.2771C180.994 50.5371 180.523 52.5334 179.582 54.2661C178.64 55.9988 177.303 57.3548 175.57 58.3341C173.875 59.2758 171.822 59.7466 169.412 59.7466H160.541V75.7361H155.569ZM160.541 55.2266H169.242C171.239 55.2266 172.821 54.5863 173.988 53.3056C175.194 52.0249 175.796 50.3488 175.796 48.2771C175.796 46.1678 175.231 44.5104 174.101 43.3051C172.971 42.0998 171.352 41.4971 169.242 41.4971H160.541V55.2266Z" fill="#FCFCFC"/>
<path d="M192.231 76.4141C191.515 76.4141 190.705 76.3011 189.801 76.0751C188.897 75.8868 188.031 75.5101 187.202 74.9451C186.411 74.3424 185.752 73.4949 185.225 72.4026C184.697 71.3103 184.434 69.8601 184.434 68.0521C184.434 65.3024 185.074 63.2308 186.355 61.8371C187.673 60.4058 189.462 59.4264 191.722 58.8991C194.02 58.3718 196.6 58.1081 199.463 58.1081V54.2661C199.463 52.8348 199.142 51.6859 198.502 50.8196C197.899 49.9156 196.656 49.4636 194.773 49.4636C193.04 49.4636 191.835 49.9721 191.157 50.9891C190.517 51.9684 190.197 53.0231 190.197 54.1531V54.8311H185.62C185.582 54.6428 185.564 54.4544 185.564 54.2661C185.564 54.0778 185.564 53.8518 185.564 53.5881C185.564 50.8761 186.449 48.8233 188.219 47.4296C190.027 46.0359 192.325 45.3391 195.112 45.3391C198.125 45.3391 200.367 46.0736 201.836 47.5426C203.342 48.9739 204.096 51.0079 204.096 53.6446V70.3121C204.096 71.0278 204.265 71.5363 204.604 71.8376C204.943 72.1389 205.301 72.2896 205.678 72.2896H207.486V75.5101C207.222 75.6608 206.826 75.8114 206.299 75.9621C205.809 76.1128 205.188 76.1881 204.435 76.1881C203.229 76.1881 202.212 75.8491 201.384 75.1711C200.593 74.4931 200.046 73.6079 199.745 72.5156H199.463C198.709 73.7209 197.692 74.6814 196.412 75.3971C195.169 76.0751 193.775 76.4141 192.231 76.4141ZM193.304 72.2896C194.283 72.2896 195.244 72.0259 196.186 71.4986C197.127 70.9336 197.899 70.1049 198.502 69.0126C199.142 67.9203 199.463 66.5643 199.463 64.9446V62.2326C197.429 62.2326 195.639 62.3833 194.095 62.6846C192.588 62.9483 191.402 63.4756 190.536 64.2666C189.707 65.0576 189.293 66.2253 189.293 67.7696C189.293 69.4646 189.632 70.6511 190.31 71.3291C191.025 71.9694 192.023 72.2896 193.304 72.2896Z" fill="#FCFCFC"/>
<path d="M211.67 75.7361V46.0171H215.173L215.794 49.9156H216.133C216.51 48.7856 217.094 47.7498 217.885 46.8081C218.676 45.8288 219.768 45.3391 221.162 45.3391C221.802 45.3391 222.329 45.4144 222.744 45.5651C223.158 45.7158 223.365 45.7911 223.365 45.7911V50.5936H221.84C220.86 50.5936 219.938 50.8196 219.071 51.2716C218.243 51.6859 217.565 52.4016 217.037 53.4186C216.548 54.4356 216.303 55.8293 216.303 57.5996V75.7361H211.67Z" fill="#FCFCFC"/>
<path d="M227.119 75.7361V34.8866H231.752V59.8031L241.357 46.0171H246.498L237.741 58.2211L246.95 75.7361H241.696L234.916 62.1761L231.752 65.6226V75.7361H227.119Z" fill="#FCFCFC"/>
<path d="M251.027 75.7361V46.0171H255.66V75.7361H251.027ZM250.914 40.2541V34.8866H255.717V40.2541H250.914Z" fill="#FCFCFC"/>
<path d="M263.149 75.7361V46.0171H266.652L267.273 49.4636H267.612C268.441 47.9946 269.477 46.9399 270.72 46.2996C271.963 45.6593 273.319 45.3391 274.788 45.3391C277.01 45.3391 278.78 46.0171 280.099 47.3731C281.455 48.6914 282.133 51.0079 282.133 54.3226V75.7361H277.5V54.6616C277.5 52.5899 277.104 51.2151 276.313 50.5371C275.56 49.8214 274.562 49.4636 273.319 49.4636C271.85 49.4636 270.55 50.1793 269.42 51.6106C268.328 53.0419 267.782 55.0383 267.782 57.5996V75.7361H263.149Z" fill="#FCFCFC"/>
<path d="M293.605 86.0191C291.195 86.0191 289.368 85.3223 288.125 83.9286C286.882 82.5726 286.26 80.9153 286.26 78.9566C286.26 77.5253 286.599 76.2258 287.277 75.0581C287.993 73.8904 288.935 73.0806 290.102 72.6286C289.349 72.1389 288.746 71.4986 288.294 70.7076C287.88 69.8789 287.673 69.0314 287.673 68.1651C287.673 66.9598 288.049 65.9239 288.803 65.0576C289.594 64.1536 290.611 63.4756 291.854 63.0236C290.799 62.1573 289.952 61.0838 289.311 59.8031C288.709 58.4848 288.407 56.9969 288.407 55.3396C288.407 52.2133 289.274 49.7649 291.006 47.9946C292.739 46.2243 295.112 45.3391 298.125 45.3391C299.67 45.3391 301.101 45.6969 302.419 46.4126C303.738 45.6969 304.642 44.8871 305.131 43.9831C305.621 43.0791 305.941 42.1563 306.092 41.2146H310.16C310.16 42.9849 309.708 44.5104 308.804 45.7911C307.937 47.0718 306.732 47.9193 305.188 48.3336C306.016 49.1623 306.657 50.1793 307.109 51.3846C307.598 52.5523 307.843 53.8706 307.843 55.3396C307.843 58.4283 306.977 60.8578 305.244 62.6281C303.549 64.3984 301.252 65.3024 298.351 65.3401H295.244C294.49 65.3401 293.85 65.6038 293.323 66.1311C292.795 66.6208 292.532 67.2423 292.532 67.9956C292.532 68.7113 292.795 69.3328 293.323 69.8601C293.888 70.3874 294.528 70.6511 295.244 70.6511H303.719C305.866 70.6511 307.561 71.3479 308.804 72.7416C310.084 74.0976 310.725 75.7173 310.725 77.6006C310.725 79.1449 310.386 80.5574 309.708 81.8381C309.067 83.1188 308.088 84.1358 306.77 84.8891C305.489 85.6424 303.907 86.0191 302.024 86.0191H293.605ZM294.34 82.0076H302.532C303.512 82.0076 304.34 81.6498 305.018 80.9341C305.696 80.2561 306.035 79.4463 306.035 78.5046C306.035 77.5253 305.753 76.6966 305.188 76.0186C304.623 75.3783 303.738 75.0581 302.532 75.0581H294.34C293.172 75.0581 292.306 75.3783 291.741 76.0186C291.176 76.6966 290.893 77.5253 290.893 78.5046C290.893 79.4463 291.176 80.2561 291.741 80.9341C292.306 81.6498 293.172 82.0076 294.34 82.0076ZM298.069 61.4981C299.726 61.4981 300.988 60.9519 301.854 59.8596C302.721 58.7296 303.154 57.2229 303.154 55.3396C303.154 53.3433 302.721 51.8178 301.854 50.7631C300.988 49.7084 299.726 49.1811 298.069 49.1811C296.449 49.1811 295.206 49.7461 294.34 50.8761C293.473 51.9684 293.04 53.4563 293.04 55.3396C293.04 57.2983 293.473 58.8238 294.34 59.9161C295.206 60.9708 296.449 61.4981 298.069 61.4981Z" fill="#FCFCFC"/>
<path d="M56.5 0C25.3468 0 0 25.3468 0 56.5C0 87.6532 25.3468 113 56.5 113C87.6532 113 113.006 87.6532 113.006 56.5C113.006 25.3468 87.6595 0 56.5 0ZM56.5 106.674C28.8357 106.674 6.33195 84.1706 6.33195 56.5C6.33195 28.8294 28.8357 6.33195 56.5 6.33195C84.1643 6.33195 106.674 28.8357 106.674 56.5C106.674 84.1643 84.1643 106.674 56.5 106.674Z" fill="#FCFCFC"/>
<path d="M77.9653 16.5517H63.6551V30.8619H77.9653V16.5517Z" fill="#FCFCFC"/>
<path d="M35.041 30.8619V89.7427H77.9653V75.4325H49.3512V67.4543H77.9653V53.1504H49.3512V45.1721H63.6551L63.6551 30.8619L35.041 30.8619Z" fill="#FCFCFC"/>
</svg>
